<svg xmlns="http://www.w3.org/2000/svg" width="640" height="640" viewBox="0 0 640 640">
  <defs>
    <linearGradient id="bg" x1="0" y1="0" x2="1" y2="1">
      <stop offset="0%" stop-color="#fff7ed"/>
      <stop offset="100%" stop-color="#ffedd5"/>
    </linearGradient>
    <radialGradient id="glow" cx="50%" cy="35%" r="45%">
      <stop offset="0%" stop-color="#ffffff" stop-opacity="0.9"/>
      <stop offset="100%" stop-color="#ffffff" stop-opacity="0"/>
    </radialGradient>
    <linearGradient id="bowlOuter" x1="0" y1="0" x2="0" y2="1">
      <stop offset="0%" stop-color="#f59e0b"/>
      <stop offset="100%" stop-color="#ea580c"/>
    </linearGradient>
    <linearGradient id="bowlInner" x1="0" y1="0" x2="1" y2="1">
      <stop offset="0%" stop-color="#ffffff"/>
      <stop offset="100%" stop-color="#fffbeb"/>
    </linearGradient>
  </defs>

  <rect width="640" height="640" rx="28" fill="url(#bg)"/>
  <circle cx="320" cy="220" r="210" fill="url(#glow)"/>

  <circle cx="175" cy="150" r="12" fill="#fdba74" opacity="0.35"/>
  <circle cx="500" cy="120" r="9" fill="#fb923c" opacity="0.35"/>
  <circle cx="540" cy="210" r="14" fill="#fcd34d" opacity="0.25"/>

  <path d="M248 218 Q236 190 248 164 Q260 138 248 112" stroke="#f59e0b" stroke-width="7" fill="none" stroke-linecap="round" opacity="0.45"/>
  <path d="M320 206 Q306 175 320 145 Q334 115 320 86" stroke="#f97316" stroke-width="7" fill="none" stroke-linecap="round" opacity="0.5"/>
  <path d="M392 218 Q380 190 392 164 Q404 138 392 112" stroke="#f59e0b" stroke-width="7" fill="none" stroke-linecap="round" opacity="0.45"/>

  <ellipse cx="320" cy="470" rx="200" ry="26" fill="#ea580c" opacity="0.14"/>

  <path d="M130 330 Q130 520 320 520 Q510 520 510 330 Z" fill="url(#bowlOuter)"/>
  <ellipse cx="320" cy="330" rx="190" ry="38" fill="url(#bowlInner)" stroke="#f59e0b" stroke-width="8"/>

  <ellipse cx="320" cy="350" rx="154" ry="56" fill="#fff7ed"/>
  <circle cx="240" cy="346" r="26" fill="#f97316"/>
  <circle cx="293" cy="328" r="20" fill="#84cc16"/>
  <circle cx="338" cy="355" r="22" fill="#fb923c"/>
  <circle cx="383" cy="334" r="24" fill="#facc15"/>
  <circle cx="424" cy="360" r="18" fill="#f43f5e"/>
  <circle cx="280" cy="376" r="16" fill="#a3e635"/>
  <circle cx="355" cy="382" r="14" fill="#22c55e"/>

  <path d="M440 270 Q478 254 500 280" stroke="#f59e0b" stroke-width="10" fill="none" stroke-linecap="round"/>
  <circle cx="500" cy="280" r="8" fill="#f59e0b"/>
</svg>